<svg xmlns="http://www.w3.org/2000/svg" width="376.269" height="812.175" viewBox="0 0 376.269 812.175">
  <g id="Group_15782" data-name="Group 15782" transform="translate(0.269 5.175)">
    <rect id="Rectangle_3017" data-name="Rectangle 3017" width="375" height="812" transform="translate(0 -5)" fill="#fdb515"/>
    <path id="Path_27224" data-name="Path 27224" d="M3774,4044.3s-10,66.4,92,23.61,255-2.213,208,28.038S4150,4138,4150,4138V3941H3774Z" transform="translate(-3774 -3946)" fill="#fff" opacity="0.16"/>
    <g id="Group_15766" data-name="Group 15766">
      <path id="Path_27111" data-name="Path 27111" d="M958.081,578.907a12.631,12.631,0,0,0-10.753-8.636,18.589,18.589,0,0,0-7.8,1.336c-8.15,2.964-15.094,8.775-20.208,15.779a64.008,64.008,0,0,0-8.208,15.667,20.612,20.612,0,0,1,7.729-5.384c5.008-2.023,10.537-2.349,15.935-2.195,6.686.189,14.12.85,19.31-3.367A12.628,12.628,0,0,0,958.081,578.907Z" transform="translate(-674.996 -529.563)" fill="#fff"/>
      <path id="Path_27112" data-name="Path 27112" d="M845.664,566.89a10.014,10.014,0,0,1,10.592-2.7,14.737,14.737,0,0,1,5.192,3.525,35.138,35.138,0,0,1,9.4,18.012,50.854,50.854,0,0,1,.782,14,16.359,16.359,0,0,0-3.81-6.421c-2.95-3.1-6.832-5.151-10.777-6.812-4.886-2.056-10.465-4.018-12.826-8.764A10.01,10.01,0,0,1,845.664,566.89Z" transform="translate(-755.268 -541.79)" fill="#fff"/>
      <path id="Path_27113" data-name="Path 27113" d="M828.8,548.908a5.307,5.307,0,0,1,4.995-2.937,7.809,7.809,0,0,1,3.164,1.03,18.611,18.611,0,0,1,7.442,7.787,26.911,26.911,0,0,1,2.461,7.014,8.671,8.671,0,0,0-2.886-2.71,16.594,16.594,0,0,0-6.493-1.881c-2.791-.327-5.921-.5-7.822-2.572A5.307,5.307,0,0,1,828.8,548.908Z" transform="translate(-763.151 -551.136)" fill="#fff"/>
      <path id="Path_27114" data-name="Path 27114" d="M965.74,600.29a6.7,6.7,0,0,0,.228-7.307,9.867,9.867,0,0,0-3.055-2.879,23.5,23.5,0,0,0-13.125-3.525,33.957,33.957,0,0,0-9.254,1.52,10.932,10.932,0,0,1,4.746,1.556,20.944,20.944,0,0,1,6.013,6.048c2.052,2.893,4.14,6.252,7.583,7.1A6.693,6.693,0,0,0,965.74,600.29Z" transform="translate(-647.677 -514.385)" fill="#fff"/>
      <path id="Path_27115" data-name="Path 27115" d="M922.945,593.465a39.1,39.1,0,0,1,30.272,4.947" transform="translate(-659.104 -496.721)" fill="none" stroke="#fff" stroke-miterlimit="10" stroke-width="0.24"/>
      <path id="Path_27117" data-name="Path 27117" d="M901.755,611.1a22.026,22.026,0,0,1,14.7-12.952" transform="translate(-683.973 -419.889)" fill="none" stroke="#fff" stroke-miterlimit="10" stroke-width="0.24"/>
      <path id="Path_27118" data-name="Path 27118" d="M865.18,569.823a30.955,30.955,0,0,0-13.231-19.265" transform="translate(-742.423 -545.74)" fill="none" stroke="#fff" stroke-miterlimit="10" stroke-width="0.24"/>
      <path id="Path_27125" data-name="Path 27125" d="M839.458,564.856a44.522,44.522,0,0,0-29.426-3.126" transform="translate(-791.617 -534.043)" fill="none" stroke="#fff" stroke-miterlimit="10" stroke-width="0.481"/>
    </g>
  </g>
</svg>
