<svg xmlns="http://www.w3.org/2000/svg" width="48" height="48" viewBox="0 0 48 48">
  <g id="_003-gmail" data-name="003-gmail" transform="translate(16.8 -34.718)">
    <g id="Path_28860" data-name="Path 28860" transform="translate(-16.8 34.718)" fill="none">
      <path d="M24,0A24,24,0,1,1,0,24,24,24,0,0,1,24,0Z" stroke="none"/>
      <path d="M 24 1 C 20.89458084106445 1 17.8825798034668 1.607978820800781 15.04766845703125 2.807041168212891 C 12.3089714050293 3.965419769287109 9.849151611328125 5.623939514160156 7.736549377441406 7.736549377441406 C 5.623939514160156 9.849151611328125 3.965419769287109 12.3089714050293 2.807041168212891 15.04766845703125 C 1.607978820800781 17.8825798034668 1 20.89458084106445 1 24 C 1 27.10541915893555 1.607978820800781 30.1174201965332 2.807041168212891 32.95233154296875 C 3.965419769287109 35.6910285949707 5.623939514160156 38.15084838867188 7.736549377441406 40.26345062255859 C 9.849151611328125 42.37606048583984 12.3089714050293 44.03458023071289 15.04766845703125 45.19295883178711 C 17.8825798034668 46.39202117919922 20.89458084106445 47 24 47 C 27.10541915893555 47 30.1174201965332 46.39202117919922 32.95233154296875 45.19295883178711 C 35.6910285949707 44.03458023071289 38.15084838867188 42.37606048583984 40.26345062255859 40.26345062255859 C 42.37606048583984 38.15084838867188 44.03458023071289 35.6910285949707 45.19295883178711 32.95233154296875 C 46.39202117919922 30.1174201965332 47 27.10541915893555 47 24 C 47 20.89458084106445 46.39202117919922 17.8825798034668 45.19295883178711 15.04766845703125 C 44.03458023071289 12.3089714050293 42.37606048583984 9.849151611328125 40.26345062255859 7.736549377441406 C 38.15084838867188 5.623939514160156 35.6910285949707 3.965419769287109 32.95233154296875 2.807041168212891 C 30.1174201965332 1.607978820800781 27.10541915893555 1 24 1 M 24 0 C 37.25482940673828 0 48 10.74517059326172 48 24 C 48 37.25482940673828 37.25482940673828 48 24 48 C 10.74517059326172 48 0 37.25482940673828 0 24 C 0 10.74517059326172 10.74517059326172 0 24 0 Z" stroke="none" fill="#fdb515"/>
    </g>
    <g id="_001-email" data-name="001-email" transform="translate(-1.8 -27.282)">
      <g id="Group_15779" data-name="Group 15779" transform="translate(0 80)">
        <g id="Group_15778" data-name="Group 15778" transform="translate(0 0)">
          <path id="Path_28862" data-name="Path 28862" d="M17.727,80H1.182A1.182,1.182,0,0,0,0,81.182v.672l9.455,4,9.455-4.005v-.671A1.182,1.182,0,0,0,17.727,80Z" transform="translate(0 -80)" fill="#fdb515"/>
        </g>
      </g>
      <g id="Group_15781" data-name="Group 15781" transform="translate(0 83.138)">
        <g id="Group_15780" data-name="Group 15780">
          <path id="Path_28863" data-name="Path 28863" d="M9.685,168.866a.585.585,0,0,1-.461,0L0,164.96v8.68a1.182,1.182,0,0,0,1.182,1.182H17.727a1.182,1.182,0,0,0,1.182-1.182v-8.68Z" transform="translate(0 -164.96)" fill="#fdb515"/>
        </g>
      </g>
    </g>
  </g>
</svg>
